<svg version="1.1" xmlns="http://www.w3.org/2000/svg" viewBox="0 0 1186.6666666666667 556" width="1186.6666666666667" height="556">
  <!-- svg-source:excalidraw -->
  
  <defs>
    <style>
      @font-face {
        font-family: "Virgil";
        src: url("https://excalidraw.com/Virgil.woff2");
      }
      @font-face {
        font-family: "Cascadia";
        src: url("https://excalidraw.com/Cascadia.woff2");
      }
    </style>
  </defs>
  <rect x="0" y="0" width="1186.6666666666667" height="556" fill="#ffffff"></rect><g transform="translate(990 130) rotate(0 93.33333333333337 70.00000000000003)"><path d="M1.642934599891305 -1.9039286468178034 C67.384759000813 1.1320306890954583, 136.302404706056 2.738558315609893, 187.8151917650055 0.45502190850675106 M-0.8690187083557248 -0.4020710391923785 C59.0126254189139 -2.719103855950138, 119.41645105710882 -1.0473773013179513, 187.22811982563397 -0.09456349443644285 M187.43106462496033 -1.7461552117019892 C186.16185777081807 31.42391620576383, 187.14509855403264 65.99760357476774, 185.92052086132279 138.7958302404732 M187.60256025722882 0.5195100205019116 C184.64335264439396 51.91596298944207, 185.73975305433086 104.91091621015225, 187.33332032493016 140.03873803187167 M185.44592436092606 141.54815958999103 C131.30555425770586 140.40433445163077, 77.88897909161948 138.78244182057685, 1.9884805474430323 141.9445056226105 M185.8414964132633 140.20669796038425 C137.3620947677022 142.2324744487182, 88.20413000416015 142.07294604424393, 0.5854861689731479 140.00286250282085 M1.5030045304447412 139.5316890981049 C-1.2721224667504427 95.92665683850649, 0.5814453123137358 53.034688772633686, -1.8067144956439734 0.08458076976239681 M-0.339740757830441 140.37387876678264 C0.5274423379451041 107.1058350047097, 0.5320935565978293 72.03645018581304, 0.9770998610183597 -0.41260878276079893" stroke="#000000" stroke-width="1" fill="none"></path></g><g transform="translate(1060.7777777777778 186.7777777777776) rotate(0 22.555555555555543 13.222222222222229)"><text x="0" y="18.444444444444454" font-family="Helvetica, Segoe UI Emoji" font-size="21.77777777777779px" fill="#000000" text-anchor="start" style="white-space: pre;" direction="ltr">Task</text></g><g transform="translate(830 370) rotate(0 120 88)"><path d="M-0.5907955226461552 0.6369743474419378 C68.27540150330368 -0.7676557204744153, 138.51605061937573 0.05168079065985148, 240.73490731452029 -0.6217647918847539 M-0.390679931677388 0.7798820008025337 C57.9828716247821 1.2351394587997082, 114.48761365604742 2.148772113200951, 239.67450048707974 0.5555238267381954 M238.69658344052732 -1.220742305740714 C241.413583785668 52.69335781522097, 241.48628076948225 107.33125287331644, 239.9989639427513 177.98848054744306 M240.67769830394536 -0.8251702534034848 C239.52989790592343 69.42889518421146, 240.29063756022603 139.00439750384544, 240.80790921021253 176.58548616897318 M239.30059846749975 177.2524566812287 C167.54105552113 173.6655767480807, 96.18666110555628 175.21015848551045, 1.6325647118393518 174.49446119735092 M239.8363754746607 175.7168933470184 C167.29658468696869 174.12004304889405, 94.54853594866745 174.1239189186998, -0.6556661835207809 176.81421926838635 M0.8180327918380499 175.2608948145062 C-3.038556314632297 129.95440222509208, 0.1791334975510832 85.52124070562424, 1.6530480291694403 -1.7185839619487524 M-0.1988785369321704 175.93414374720308 C-1.64349305447191 139.47856445889923, -1.5481758397445082 101.28039617370816, 0.7299869256094098 -0.8011139081791043" stroke="#000000" stroke-width="1" fill="none"></path></g><g transform="translate(874.4000000000005 444.39999999999986) rotate(0 76.79999999999995 13.600000000000023)"><text x="0" y="19.200000000000003" font-family="Helvetica, Segoe UI Emoji" font-size="22.400000000000002px" fill="#000000" text-anchor="start" style="white-space: pre;" direction="ltr">TaskRepository</text></g><g><g transform="translate(970 370) rotate(0 37.57286574585112 -48.10801525519537)"><path d="M0.030239498242735863 0.49081967510283 C-0.9611492637544871 -1.5027773595104614, -21.131826500850067 5.105348330225652, -6.443463111296296 -10.807845383509994 C8.244900278257477 -26.72103909724564, 72.28261362069422 -80.93643645562781, 88.16041983556538 -94.98834260731105 M-1.4130234945192934 -0.29710394080728286 C-2.557912645377219 -1.647971670391659, -22.398973148683357 6.379510769594317, -7.624326708354056 -9.694538958631457 C7.1503197319752445 -25.76858868685723, 71.08772438553297 -82.1647069240789, 87.23485514745651 -96.74140231016193" stroke="#000000" stroke-width="1" fill="none"></path></g><g transform="translate(970 370) rotate(0 37.57286574585112 -48.10801525519537)"><path d="M73.87787066534922 -71.04059665459295 C75.12685459783403 -77.65361517515537, 82.01217592989943 -83.3897305806886, 88.88790317662595 -98.45998627211068 M72.860959336579 -70.36734772189607 C75.00860242609986 -75.10845592854206, 78.10446799934641 -81.64794815337412, 87.96484207306592 -97.54251621834104" stroke="#000000" stroke-width="1" fill="none"></path></g><g transform="translate(970 370) rotate(0 37.57286574585112 -48.10801525519537)"><path d="M60.198947635621224 -86.33788619008308 C65.13427948433932 -88.99634448288393, 75.55887334724562 -90.77445262924793, 88.88790317662595 -98.45998627211068 M59.182036306851 -85.6646372573862 C64.28573634468432 -87.11379372207088, 70.27713772222248 -90.41517652393416, 87.96484207306592 -97.54251621834104" stroke="#000000" stroke-width="1" fill="none"></path></g></g><g><g transform="translate(1014.9277195106583 369) rotate(0 21.751153623966275 -47.69826998895442)"><path d="M-0.027109778299927667 -0.6161083158105611 C7.628756226860545 -16.619790703568732, 37.668185125107875 -80.99391336249249, 45.00278838917948 -97.07137085095867 M-1.5004811412468553 1.6748308730497956 C6.134554400742612 -14.13613924230275, 36.969669311496425 -79.81075220068979, 44.388373867462946 -96.15474862982407" stroke="#000000" stroke-width="1" fill="none"></path></g><g transform="translate(1014.9277195106583 369) rotate(0 21.751153623966275 -47.69826998895442)"><path d="M40.82497520573346 -65.20303001521789 C40.7062726953054 -73.55135449918501, 41.25434247873706 -79.0709883405847, 45.77340424698181 -95.35329887461737 M41.98153753314076 -66.7829237374168 C43.42271129375218 -74.04218868950097, 42.725682569415945 -80.01001176383798, 44.76835606046356 -96.03431029715463" stroke="#000000" stroke-width="1" fill="none"></path></g><g transform="translate(1014.9277195106583 369) rotate(0 21.751153623966275 -47.69826998895442)"><path d="M22.203840120698437 -73.82702737901137 C26.149196098280324 -80.25403595053508, 30.83673235289192 -83.85656066985679, 45.77340424698181 -95.35329887461737 M23.360402448105738 -75.40692110121027 C29.25735939559975 -80.54208431046433, 33.01183738652379 -84.44828321409405, 44.76835606046356 -96.03431029715463" stroke="#000000" stroke-width="1" fill="none"></path></g></g><g transform="translate(210 150) rotate(0 112 80)"><path d="M-0.37545457072799426 1.1769971889874837 C73.46234856582889 -1.9590205760682216, 149.5509008176423 -0.3303328668157451, 223.04107144195072 -1.3720863954377032 M0.7486020851294349 -0.20176471704369894 C61.70705857113937 0.6046491850511573, 122.79441767417316 1.5160669976229093, 223.61265195015443 -0.19258049374494662 M223.7508447077125 1.024885991588235 C222.71598662845787 51.53260361589491, 224.3105628084391 103.62343014217912, 225.71065967343745 159.2530965004116 M223.0040084319189 0.49101715814322233 C222.41979310233143 33.308720479719334, 222.47130519468334 67.61830135714261, 224.413763214834 160.76414325367656 M224.20768956972842 161.56357556170926 C158.59708787805693 159.39646619087276, 91.08256436028451 159.8828706797166, 1.6739257246145225 159.2122848676207 M223.42217179300292 159.94754724522093 C147.85860005349903 162.43590855322174, 71.81805672786957 162.4661387492766, 0.44639210751757136 160.3650571806878 M-1.8982557151466608 161.29837415553627 C3.2345568519085646 126.03112396039066, -0.35656261630356334 94.8519875500351, -0.02287144400179386 -0.027473410591483116 M0.37839861679822206 159.67963146697727 C-0.5674796400591731 97.32716415356842, 0.06305581349879508 35.2560641421005, 0.6326453583315015 0.42409201990813017" stroke="#000000" stroke-width="1" fill="none"></path></g><g transform="translate(298 216.39999999999986) rotate(0 24 13.599999999999994)"><text x="0" y="19.199999999999996" font-family="Helvetica, Segoe UI Emoji" font-size="22.399999999999995px" fill="#000000" text-anchor="start" style="white-space: pre;" direction="ltr">View</text></g><g transform="translate(10 210) rotate(0 29.5 17)"><text x="0" y="24" font-family="Helvetica, Segoe UI Emoji" font-size="28px" fill="#000000" text-anchor="start" style="white-space: pre;" direction="ltr">User</text></g><g><g transform="translate(70.00000000000006 230.06916768591526) rotate(0 67.13747187219559 -1.6888979236092325)"><path d="M-0.7849284175783395 -0.47964492402970793 C21.598521204416947 -1.0474884818761343, 112.49320530059437 -2.809669471665618, 135.05987216196954 -2.8981509231888025 M1.0038454338535665 -1.7770624544844031 C23.15058481858422 -2.264769013438999, 111.9485192144538 -1.6617335632660961, 134.03825958337634 -1.8389321952797741" stroke="#000000" stroke-width="1" fill="none"></path></g><g transform="translate(70.00000000000006 230.06916768591526) rotate(0 67.13747187219559 -1.6888979236092325)"><path d="M105.0478728564662 8.187576479685502 C114.52643576818272 3.903529152285392, 127.91324731170327 2.1334259338641477, 134.54052425254136 -1.0210869308300585 M104.99822686540159 7.725941799988048 C112.74190246390272 6.326789648355199, 116.94281751249768 3.0754171623632613, 134.40605855718255 -1.8146675960831613" stroke="#000000" stroke-width="1" fill="none"></path></g><g transform="translate(70.00000000000006 230.06916768591526) rotate(0 67.13747187219559 -1.6888979236092325)"><path d="M105.04827266039992 -12.33363211596003 C114.61371914556888 -9.16305474327329, 128.00038545449902 -3.4785306464621097, 134.54052425254136 -1.0210869308300585 M104.99862666933531 -12.795266795657485 C112.64639794447702 -9.875973787511189, 116.84722885912672 -8.808903920257228, 134.40605855718255 -1.8146675960831613" stroke="#000000" stroke-width="1" fill="none"></path></g></g><g><g transform="translate(209 247.37686095869464) rotate(0 -68.86114672167693 -1.705780706627479)"><path d="M0.7170460101217031 -0.27204541526734827 C-22.117470982026635 -0.4758996202232253, -114.55627634352236 -0.9860092305550039, -137.96156779550955 -1.4438143174688889 M-0.3656435639038682 -1.4604732036218047 C-23.196287116024962 -1.9795038538234246, -115.62185954423781 -3.032690967597967, -138.4393394534756 -3.1395159979875755" stroke="#000000" stroke-width="1" fill="none"></path></g><g transform="translate(209 247.37686095869464) rotate(0 -68.86114672167693 -1.705780706627479)"><path d="M-110.61314933112712 -11.659788165159792 C-115.05755654199905 -12.205175265815154, -123.91721303267839 -10.330026220893116, -139.73064202454879 -3.6059242711927366 M-110.44772188569308 -12.31156961891082 C-116.64144903978669 -11.613024839726364, -121.89882893312615 -9.49884765293751, -137.7587846267317 -4.077474243153222" stroke="#000000" stroke-width="1" fill="none"></path></g><g transform="translate(209 247.37686095869464) rotate(0 -68.86114672167693 -1.705780706627479)"><path d="M-110.79295466571833 8.86063269864054 C-115.15998317239239 3.7902149989199145, -123.9799995668767 1.1414078505914143, -139.73064202454879 -3.6059242711927366 M-110.62752722028429 8.208851244889512 C-116.72466200786408 4.795711286014786, -121.94602469803793 2.7993977080233146, -137.7587846267317 -4.077474243153222" stroke="#000000" stroke-width="1" fill="none"></path></g></g><g transform="translate(510 230) rotate(0 135 90)"><path d="M0.48439429765101144 -0.8147540880240387 C71.2778765505363 0.9775805757572478, 146.1174417977644 0.15407717321572967, 270.69865059831034 -1.115656963006992 M-0.40249100726164316 0.2801804732217584 C71.2899539572953 -1.1991038667306135, 142.42936786654482 -1.3201926289617847, 270.0802040660902 0.4717582379808817 M271.75014756061137 1.3728982713073492 C269.2128839997575 60.19265028461814, 271.0580212978646 117.46740985102952, 270.53232459165156 179.8403636123985 M270.73041903506964 0.057241846807301044 C268.08652354367075 38.556438519619405, 269.15575377233324 75.09621308092028, 269.99490293394774 179.95952459145337 M271.0986594471664 180.98238216938577 C182.99681918430832 181.69668358030808, 95.79037192580276 180.92201976902174, 0.06397579595955089 178.8483347634809 M270.42402490463496 180.52943163334476 C185.98709154398333 180.02496233883556, 101.69967620700382 180.8110305130935, 0.12826709253065846 180.39343154741493 M1.94986710883677 178.03521065972745 C2.36101330909878 138.14018394052982, 0.45367486868053675 94.70492551662028, -0.6855393256992102 0.33120917342603207 M0.3583224369212985 180.58235262800008 C-0.8423954091966153 127.25949468743056, -0.6570286296308041 74.91721707675605, 0.707544113509357 -0.13809678982943296" stroke="#000000" stroke-width="1" fill="none"></path></g><g transform="translate(536.4375 300.875) rotate(0 108.5625 19.125)"><text x="0" y="26.25" font-family="Helvetica, Segoe UI Emoji" font-size="31.5px" fill="#000000" text-anchor="start" style="white-space: pre;" direction="ltr">TasksController</text></g><g><g transform="translate(790 330) rotate(0 38.76477399519649 17.316262309495357)"><path d="M0.2649509612470866 -0.1521496418863535 C13.558869312579432 5.447254188482961, 65.42900741336246 28.75018375280003, 78.58463650383055 34.588676404580475 M-1.0550885134376586 -1.2776321492157878 C12.14761568353201 4.403326440298308, 64.15311743642513 29.675107011242456, 77.41852520471438 35.910156768206505" stroke="#000000" stroke-width="1" fill="none"></path></g><g transform="translate(790 330) rotate(0 38.76477399519649 17.316262309495357)"><path d="M47.30578117702153 32.314354184309 C52.92223353168314 33.85772685085684, 59.430183602017955 35.87467056830642, 79.09673192603513 36.6268016420491 M48.48843688495454 32.28803181857055 C58.9851062522194 34.07541367798516, 68.90402477429788 35.436099391563516, 78.07914597885683 36.735545398127286" stroke="#000000" stroke-width="1" fill="none"></path></g><g transform="translate(790 330) rotate(0 38.76477399519649 17.316262309495357)"><path d="M56.15785105129328 13.800552269876356 C60.14139159767734 19.098824181802705, 64.86334333214647 24.851122441112345, 79.09673192603513 36.6268016420491 M57.34050675922629 13.774229904137904 C64.80374083994926 22.144477501049888, 71.55153578429395 30.13745990887231, 78.07914597885683 36.735545398127286" stroke="#000000" stroke-width="1" fill="none"></path></g></g><g><g transform="translate(790 310) rotate(0 99.85183447038753 -45.247010213509185)"><path d="M1.0135444108396767 0.8022556420415639 C33.85742283500731 -14.508998028809827, 164.44137598909435 -75.97296375868221, 197.28209698833524 -91.29627606905997 M0.08651649719104171 0.17783590877428646 C33.300409805234516 -15.00495819107319, 166.7444795144163 -74.90269294376796, 199.61715244358405 -89.91439575409517" stroke="#000000" stroke-width="1" fill="none"></path></g><g transform="translate(790 310) rotate(0 99.85183447038753 -45.247010213509185)"><path d="M179.4968773100034 -70.1447050270996 C184.39468098933634 -75.70517118552877, 191.4876077230124 -82.08899122345075, 199.2247683112137 -90.68884940339252 M177.34380037910051 -69.321236640904 C183.99015165280068 -75.81995899866249, 190.98151089776562 -82.07762729035278, 199.3166878386028 -89.64134280370548" stroke="#000000" stroke-width="1" fill="none"></path></g><g transform="translate(790 310) rotate(0 99.85183447038753 -45.247010213509185)"><path d="M171.04013691123205 -88.84239323215928 C178.71818406861996 -88.52401789474665, 188.50234612389607 -88.95756908711772, 199.2247683112137 -90.68884940339252 M168.88705998032916 -88.01892484596368 C178.3323691627337 -88.57731654991869, 188.00785331398714 -88.90043698573439, 199.3166878386028 -89.64134280370548" stroke="#000000" stroke-width="1" fill="none"></path></g></g><g><g transform="translate(510 270) rotate(0 -38.32164267888294 -19.567995452508313)"><path d="M1.180442463979125 0.3381787363439799 C-11.721139423425 -6.1544414814561605, -63.73701784250637 -32.75494229160249, -76.57421793974936 -39.47416964136064 M0.34103602822870016 -0.5298813724145293 C-12.84189763887475 -6.81425945635885, -65.01257107877484 -31.745210206471384, -77.82372782174498 -38.18568345185369" stroke="#000000" stroke-width="1" fill="none"></path></g><g transform="translate(510 270) rotate(0 -38.32164267888294 -19.567995452508313)"><path d="M-47.425851442694075 -35.99345689607298 C-59.793078805307545 -35.64486155830478, -71.6583577961903 -37.261947459302476, -79.11276064794511 -37.08923695821315 M-48.583561280585236 -35.805041740326935 C-54.62984409088458 -36.52452148011734, -60.939813368172835 -36.33198315337735, -76.96825195923448 -37.510324207395314" stroke="#000000" stroke-width="1" fill="none"></path></g><g transform="translate(510 270) rotate(0 -38.32164267888294 -19.567995452508313)"><path d="M-56.4300419105436 -17.5531598159138 C-65.38959590119036 -24.108785455090423, -73.92687103102305 -32.541517926516214, -79.11276064794511 -37.08923695821315 M-57.58775174843476 -17.36474466016776 C-61.7111612524121 -22.30900591196414, -65.96426074615283 -26.328871798490148, -76.96825195923448 -37.510324207395314" stroke="#000000" stroke-width="1" fill="none"></path></g></g><g transform="translate(210 370) rotate(0 100 60)"><path d="M0.16384690073508396 0.08223338323819264 C59.090900171264 0.13505186687874793, 120.4179487657103 1.1477583762401342, 201.20898638825494 1.0678914544131717 M-0.5444447885880489 0.14635806629201956 C74.2499722811864 0.31919342343386814, 147.53328159729682 1.642183042886285, 200.8188015866925 -0.6867407658414524 M200.78552096150815 1.8823329601436853 C197.31386757791043 34.59450778923929, 198.50955803096295 71.48579982109368, 198.65219437144697 120.07450411655009 M199.1853631036356 0.6623755944892764 C199.10295753013344 39.024820684455335, 198.98353589903564 76.75252589862794, 199.7649339037016 119.12446558009833 M201.46071188856357 118.8606208524295 C158.6799170939675 118.0414101057341, 116.39447294091576 118.25672105727232, -0.10966029700463636 118.43492328919744 M200.8877950483979 119.79284921487698 C143.78517709609716 118.18881747719917, 88.40622732311583 118.78875078370527, -0.47567785971158927 120.4906698618733 M-1.2096831295639277 119.38565281964839 C1.482578869909048 91.16579006426036, 2.1342973075807095 59.477705644443624, -0.3772695157676935 0.8232043776661158 M-0.22749150823801756 120.7574058426544 C0.6265552362427116 79.12965529318899, 0.5885373374447227 36.576576489023864, 0.14121236372739077 0.4620094848796725" stroke="#000000" stroke-width="1" fill="none"></path></g><g transform="translate(268.5 413) rotate(0 41.5 17)"><text x="0" y="24" font-family="Helvetica, Segoe UI Emoji" font-size="28px" fill="#000000" text-anchor="start" style="white-space: pre;" direction="ltr">Router</text></g><g><g transform="translate(50 250) rotate(0 77.31980642697772 105.20494483465117)"><path d="M0.7948507133871316 -0.5612140897661447 C3.006066809470455 32.31762661499282, -12.218319854761168 164.08229082388183, 13.834672898426652 196.2954799529165 C39.88766565161447 228.50866908195118, 133.42702626623213 193.45156395795445, 157.11280723251403 192.71792068444194 M-0.24699139142408977 1.7585445677675309 C1.8295918662908173 34.86564439072584, -12.784056647463393 165.4415702946422, 13.32483070647344 197.46303217941895 C39.43371806041027 229.4844940641957, 132.68635934030635 194.72838259552293, 156.4063327321969 193.88731587642803" stroke="#000000" stroke-width="1" fill="none"></path></g><g transform="translate(50 250) rotate(0 77.31980642697772 105.20494483465117)"><path d="M129.80253185834584 210.80683006793828 C138.6043607779686 204.04097777990245, 148.22260082936387 196.70917554998343, 154.56236658526583 195.7974373676069 M130.87136787772027 208.59032129105748 C137.36859795213567 204.62191508329113, 144.6031384384346 200.20765970098762, 156.1838534437306 194.58958232088014" stroke="#000000" stroke-width="1" fill="none"></path></g><g transform="translate(50 250) rotate(0 77.31980642697772 105.20494483465117)"><path d="M125.82634855996962 190.6745185075746 C135.8450265856384 190.8739054936374, 146.8441209811415 190.53367980557766, 154.56236658526583 195.7974373676069 M126.89518457934405 188.4580097306938 C134.64417532319064 190.02549071140047, 142.96709672105837 191.12195301080044, 156.1838534437306 194.58958232088014" stroke="#000000" stroke-width="1" fill="none"></path></g></g><g><g transform="translate(410 410) rotate(0 48.65657761655751 -21.0418711539358)"><path d="M-0.677629542723298 -0.2556567963212728 C15.770490642016131 -7.4128859059264265, 81.63046785953144 -35.11928589108089, 97.99078477583825 -41.828085511550306 M1.1674762180075051 -1.4354805597290397 C17.517838210922974 -7.948387203676006, 81.15784461683285 -33.86583419567595, 97.03790131952614 -40.725405153892936" stroke="#000000" stroke-width="1" fill="none"></path></g><g transform="translate(410 410) rotate(0 48.65657761655751 -21.0418711539358)"><path d="M74.55143698407998 -20.409996787098784 C78.74348320354206 -26.04637687443053, 86.27791796781366 -28.45041733397321, 97.58526679683477 -38.84644998896867 M75.08968501548013 -20.639273070742924 C79.57298112385489 -26.053803337598016, 86.89855243013282 -31.07095458200697, 96.37021711185575 -40.509793611317875" stroke="#000000" stroke-width="1" fill="none"></path></g><g transform="translate(410 410) rotate(0 48.65657761655751 -21.0418711539358)"><path d="M66.64421788595797 -39.346625011788994 C72.92453367601009 -40.358745325776255, 82.37123954485207 -38.18317738915506, 97.58526679683477 -38.84644998896867 M67.18246591735812 -39.575901295433134 C73.8403946422428 -40.242738801200055, 83.16046947494232 -40.48334707848047, 96.37021711185575 -40.509793611317875" stroke="#000000" stroke-width="1" fill="none"></path></g></g><g transform="translate(1042.3333333333335 90) rotate(0 41 17.5)"><text x="0" y="28" font-family="Cascadia, Segoe UI Emoji" font-size="28px" fill="#087f5b" text-anchor="start" style="white-space: pre;" direction="ltr">MODEL</text></g><g transform="translate(289 110) rotate(0 33 17.5)"><text x="0" y="28" font-family="Cascadia, Segoe UI Emoji" font-size="28px" fill="#087f5b" text-anchor="start" style="white-space: pre;" direction="ltr">VIEW</text></g><g transform="translate(563 190) rotate(0 82 17.5)"><text x="0" y="28" font-family="Cascadia, Segoe UI Emoji" font-size="28px" fill="#087f5b" text-anchor="start" style="white-space: pre;" direction="ltr">CONTROLLER</text></g><g transform="translate(610 10) rotate(0 31.5 22)"><text x="0" y="35" font-family="Cascadia, Segoe UI Emoji" font-size="36px" fill="#087f5b" text-anchor="start" style="white-space: pre;" direction="ltr">MVC</text></g></svg>